<svg width="16" height="16" viewBox="0 0 16 16" fill="none" xmlns="http://www.w3.org/2000/svg">
<path d="M8.25 7.74984V8.24984M7.75 7.74984V8.24984M8.25 3.08317V3.58317M7.75 3.08317V3.58317M8.25 12.4165V12.9165M7.75 12.4165V12.9165M7.99996 8.66667C7.63177 8.66667 7.33329 8.36819 7.33329 8C7.33329 7.63181 7.63177 7.33333 7.99996 7.33333C8.36815 7.33333 8.66663 7.63181 8.66663 8C8.66663 8.36819 8.36815 8.66667 7.99996 8.66667ZM7.99996 4C7.63177 4 7.33329 3.70152 7.33329 3.33333C7.33329 2.96515 7.63177 2.66667 7.99996 2.66667C8.36815 2.66667 8.66663 2.96515 8.66663 3.33333C8.66663 3.70152 8.36815 4 7.99996 4ZM7.99996 13.3333C7.63177 13.3333 7.33329 13.0349 7.33329 12.6667C7.33329 12.2985 7.63177 12 7.99996 12C8.36815 12 8.66663 12.2985 8.66663 12.6667C8.66663 13.0349 8.36815 13.3333 7.99996 13.3333Z" stroke="#303030" stroke-width="1.33333" stroke-linecap="round"/>
</svg>
