<svg width="16" height="16" viewBox="0 0 16 16" fill="none" xmlns="http://www.w3.org/2000/svg">
<path d="M2 6.66659H14M5.33333 3.99992V1.33325M10.6667 3.99992V1.33325M6.26667 14.6666H9.73333C11.2268 14.6666 11.9735 14.6666 12.544 14.3759C13.0457 14.1203 13.4537 13.7123 13.7094 13.2106C14 12.6401 14 11.8934 14 10.3999V6.93325C14 5.43978 14 4.69304 13.7094 4.12261C13.4537 3.62085 13.0457 3.2129 12.544 2.95723C11.9735 2.66659 11.2268 2.66659 9.73333 2.66659H6.26667C4.77319 2.66659 4.02646 2.66659 3.45603 2.95723C2.95426 3.2129 2.54631 3.62085 2.29065 4.12261C2 4.69304 2 5.43978 2 6.93325V10.3999C2 11.8934 2 12.6401 2.29065 13.2106C2.54631 13.7123 2.95426 14.1203 3.45603 14.3759C4.02646 14.6666 4.77319 14.6666 6.26667 14.6666Z" stroke="#757575" stroke-width="1.2" stroke-linecap="round"/>
</svg>
