<svg width="21" height="20" viewBox="0 0 21 20" fill="none" xmlns="http://www.w3.org/2000/svg">
<path d="M10.059 12.2916C12.0725 12.2916 13.7048 10.6593 13.7048 8.64579C13.7048 6.63225 12.0725 4.99996 10.059 4.99996C8.04542 4.99996 6.41313 6.63225 6.41313 8.64579C6.41313 10.6593 8.04542 12.2916 10.059 12.2916ZM10.059 12.2916C12.9007 12.2916 15.2678 13.8156 15.7866 15.8333M10.059 12.2916C7.21725 12.2916 4.85013 13.8156 4.33132 15.8333M18.3922 9.99996C18.3922 14.6023 14.6612 18.3333 10.0589 18.3333C5.45649 18.3333 1.72552 14.6023 1.72552 9.99996C1.72552 5.39759 5.45649 1.66663 10.0589 1.66663C14.6612 1.66663 18.3922 5.39759 18.3922 9.99996Z" stroke="#757575" stroke-width="1.25" stroke-linecap="round"/>
</svg>
