<svg width="21" height="20" viewBox="0 0 21 20" fill="none" xmlns="http://www.w3.org/2000/svg">
<path d="M7.60781 10.9166C7.19359 10.9166 6.85781 11.2524 6.85781 11.6666C6.85781 12.0808 7.19359 12.4166 7.60781 12.4166V10.9166ZM14.2745 12.4166C14.6887 12.4166 15.0245 12.0808 15.0245 11.6666C15.0245 11.2524 14.6887 10.9166 14.2745 10.9166V12.4166ZM7.60781 4.24996C7.19359 4.24996 6.85781 4.58575 6.85781 4.99996C6.85781 5.41417 7.19359 5.74996 7.60781 5.74996V4.24996ZM14.2745 5.74996C14.6887 5.74996 15.0245 5.41417 15.0245 4.99996C15.0245 4.58575 14.6887 4.24996 14.2745 4.24996V5.74996ZM7.60781 7.58329C7.19359 7.58329 6.85781 7.91908 6.85781 8.33329C6.85781 8.74751 7.19359 9.08329 7.60781 9.08329V7.58329ZM14.2745 9.08329C14.6887 9.08329 15.0245 8.74751 15.0245 8.33329C15.0245 7.91908 14.6887 7.58329 14.2745 7.58329V9.08329ZM5.10781 14.25C4.69359 14.25 4.35781 14.5857 4.35781 15C4.35781 15.4142 4.69359 15.75 5.10781 15.75V14.25ZM16.7745 15.75C17.1887 15.75 17.5245 15.4142 17.5245 15C17.5245 14.5857 17.1887 14.25 16.7745 14.25V15.75ZM5.17285 18.1456L4.82712 18.8112L5.17285 18.1456ZM4.46212 17.4349L3.79656 17.7806L4.46212 17.4349ZM17.4202 17.4349L18.0857 17.7806L17.4202 17.4349ZM16.7094 18.1456L17.0552 18.8112L16.7094 18.1456ZM16.7094 1.85427L17.0552 1.18871L16.7094 1.85427ZM17.4202 2.565L18.0857 2.21927L17.4202 2.565ZM5.17285 1.85427L4.82712 1.18871L5.17285 1.85427ZM4.46212 2.565L3.79656 2.21927L4.46212 2.565ZM7.60781 11.6666V12.4166H14.2745V11.6666V10.9166H7.60781V11.6666ZM7.60781 4.99996V5.74996H14.2745V4.99996V4.24996H7.60781V4.99996ZM7.60781 8.33329V9.08329H14.2745V8.33329V7.58329H7.60781V8.33329ZM5.10781 15V15.75H16.7745V15V14.25H5.10781V15ZM6.95781 1.66663V2.41663H14.9245V1.66663V0.916626H6.95781V1.66663ZM17.6078 4.34996H16.8578V15.65H17.6078H18.3578V4.34996H17.6078ZM14.9245 18.3333V17.5833H6.95781V18.3333V19.0833H14.9245V18.3333ZM4.27448 15.65H5.02448V4.34996H4.27448H3.52448V15.65H4.27448ZM6.95781 18.3333V17.5833C6.47064 17.5833 6.15113 17.5827 5.90693 17.5624C5.67171 17.5429 5.5743 17.509 5.51858 17.4801L5.17285 18.1456L4.82712 18.8112C5.13263 18.9699 5.45313 19.0299 5.78279 19.0573C6.10347 19.0839 6.49582 19.0833 6.95781 19.0833V18.3333ZM4.27448 15.65H3.52448C3.52448 16.1119 3.52387 16.5043 3.5505 16.825C3.57788 17.1546 3.63786 17.4751 3.79656 17.7806L4.46212 17.4349L5.12768 17.0892C5.09874 17.0335 5.06489 16.9361 5.04536 16.7008C5.02508 16.4566 5.02448 16.1371 5.02448 15.65H4.27448ZM5.17285 18.1456L5.51858 17.4801C5.35116 17.3931 5.21465 17.2566 5.12768 17.0892L4.46212 17.4349L3.79656 17.7806C4.02584 18.222 4.38573 18.5819 4.82712 18.8112L5.17285 18.1456ZM17.6078 15.65H16.8578C16.8578 16.1371 16.8572 16.4566 16.8369 16.7008C16.8174 16.9361 16.7835 17.0335 16.7546 17.0892L17.4202 17.4349L18.0857 17.7806C18.2444 17.4751 18.3044 17.1546 18.3318 16.825C18.3584 16.5043 18.3578 16.1119 18.3578 15.65H17.6078ZM14.9245 18.3333V19.0833C15.3865 19.0833 15.7788 19.0839 16.0995 19.0573C16.4292 19.0299 16.7497 18.9699 17.0552 18.8112L16.7094 18.1456L16.3637 17.4801C16.308 17.509 16.2106 17.5429 15.9754 17.5624C15.7312 17.5827 15.4116 17.5833 14.9245 17.5833V18.3333ZM17.4202 17.4349L16.7546 17.0892C16.6676 17.2566 16.5311 17.3931 16.3637 17.4801L16.7094 18.1456L17.0552 18.8112C17.4965 18.5819 17.8564 18.222 18.0857 17.7806L17.4202 17.4349ZM14.9245 1.66663V2.41663C15.4116 2.41663 15.7312 2.41723 15.9754 2.43751C16.2106 2.45704 16.308 2.49089 16.3637 2.51983L16.7094 1.85427L17.0552 1.18871C16.7497 1.03001 16.4292 0.970031 16.0995 0.942654C15.7788 0.916023 15.3865 0.916626 14.9245 0.916626V1.66663ZM17.6078 4.34996H18.3578C18.3578 3.88797 18.3584 3.49562 18.3318 3.17494C18.3044 2.84528 18.2444 2.52478 18.0857 2.21927L17.4202 2.565L16.7546 2.91073C16.7835 2.96645 16.8174 3.06386 16.8369 3.29908C16.8572 3.54328 16.8578 3.86279 16.8578 4.34996H17.6078ZM16.7094 1.85427L16.3637 2.51983C16.5311 2.6068 16.6676 2.74331 16.7546 2.91073L17.4202 2.565L18.0857 2.21927C17.8564 1.77788 17.4965 1.41799 17.0552 1.18871L16.7094 1.85427ZM6.95781 1.66663V0.916626C6.49582 0.916626 6.10347 0.916023 5.78279 0.942654C5.45313 0.970031 5.13263 1.03001 4.82712 1.18871L5.17285 1.85427L5.51858 2.51983C5.5743 2.49089 5.67171 2.45704 5.90693 2.43751C6.15113 2.41723 6.47064 2.41663 6.95781 2.41663V1.66663ZM4.27448 4.34996H5.02448C5.02448 3.86279 5.02508 3.54328 5.04536 3.29908C5.06489 3.06386 5.09874 2.96645 5.12768 2.91073L4.46212 2.565L3.79656 2.21927C3.63786 2.52478 3.57788 2.84528 3.5505 3.17494C3.52387 3.49562 3.52448 3.88797 3.52448 4.34996H4.27448ZM5.17285 1.85427L4.82712 1.18871C4.38573 1.41799 4.02584 1.77788 3.79656 2.21927L4.46212 2.565L5.12768 2.91073C5.21465 2.74331 5.35116 2.6068 5.51858 2.51983L5.17285 1.85427Z" fill="#757575"/>
</svg>
