<svg width="19" height="18" viewBox="0 0 19 18" fill="none" xmlns="http://www.w3.org/2000/svg">
<path d="M9.05896 11.2916C11.0725 11.2916 12.7048 9.65933 12.7048 7.64579C12.7048 5.63225 11.0725 3.99996 9.05896 3.99996C7.04542 3.99996 5.41313 5.63225 5.41313 7.64579C5.41313 9.65933 7.04542 11.2916 9.05896 11.2916ZM9.05896 11.2916C11.9007 11.2916 14.2678 12.8156 14.7866 14.8333M9.05896 11.2916C6.21725 11.2916 3.85013 12.8156 3.33132 14.8333M17.3922 8.99996C17.3922 13.6023 13.6612 17.3333 9.05886 17.3333C4.45649 17.3333 0.725525 13.6023 0.725525 8.99996C0.725525 4.39759 4.45649 0.666626 9.05886 0.666626C13.6612 0.666626 17.3922 4.39759 17.3922 8.99996Z" stroke="#757575" stroke-width="1.25" stroke-linecap="round"/>
</svg>
