<svg width="24" height="25" viewBox="0 0 24 25" fill="none" xmlns="http://www.w3.org/2000/svg">
<path d="M8 15.3684C5.60879 16.0601 4 17.3527 4 18.8333C4 21.0425 7.58172 22.8333 12 22.8333C16.4183 22.8333 20 21.0425 20 18.8333C20 17.3527 18.3912 16.0601 16 15.3684M18 9.23331C18 12.7679 13.5 18.8333 12 18.8333C10.5 18.8333 6 12.7679 6 9.23331C6 5.69869 8.68629 2.83331 12 2.83331C15.3137 2.83331 18 5.69869 18 9.23331ZM14 8.83331C14 9.93788 13.1046 10.8333 12 10.8333C10.8954 10.8333 10 9.93788 10 8.83331C10 7.72874 10.8954 6.83331 12 6.83331C13.1046 6.83331 14 7.72874 14 8.83331Z" stroke="#757575" stroke-width="1.5"/>
</svg>
