<svg width="16" height="20" viewBox="0 0 16 20" fill="none" xmlns="http://www.w3.org/2000/svg">
<path d="M4.60787 10.9166C4.19366 10.9166 3.85787 11.2524 3.85787 11.6666C3.85787 12.0808 4.19366 12.4166 4.60787 12.4166V10.9166ZM11.2745 12.4166C11.6887 12.4166 12.0245 12.0808 12.0245 11.6666C12.0245 11.2524 11.6887 10.9166 11.2745 10.9166V12.4166ZM4.60787 4.24996C4.19366 4.24996 3.85787 4.58575 3.85787 4.99996C3.85787 5.41417 4.19366 5.74996 4.60787 5.74996V4.24996ZM11.2745 5.74996C11.6887 5.74996 12.0245 5.41417 12.0245 4.99996C12.0245 4.58575 11.6887 4.24996 11.2745 4.24996V5.74996ZM4.60787 7.58329C4.19366 7.58329 3.85787 7.91908 3.85787 8.33329C3.85787 8.74751 4.19366 9.08329 4.60787 9.08329V7.58329ZM11.2745 9.08329C11.6887 9.08329 12.0245 8.74751 12.0245 8.33329C12.0245 7.91908 11.6887 7.58329 11.2745 7.58329V9.08329ZM2.10787 14.25C1.69366 14.25 1.35787 14.5857 1.35787 15C1.35787 15.4142 1.69366 15.75 2.10787 15.75V14.25ZM13.7745 15.75C14.1887 15.75 14.5245 15.4142 14.5245 15C14.5245 14.5857 14.1887 14.25 13.7745 14.25V15.75ZM2.17291 18.1456L1.82718 18.8112L2.17291 18.1456ZM1.46218 17.4349L0.79662 17.7806L1.46218 17.4349ZM14.4202 17.4349L15.0858 17.7806L14.4202 17.4349ZM13.7095 18.1456L14.0552 18.8112L13.7095 18.1456ZM13.7095 1.85427L14.0552 1.18871L13.7095 1.85427ZM14.4202 2.565L15.0858 2.21927L14.4202 2.565ZM2.17291 1.85427L1.82718 1.18871L2.17291 1.85427ZM1.46218 2.565L0.79662 2.21927L1.46218 2.565ZM4.60787 11.6666V12.4166H11.2745V11.6666V10.9166H4.60787V11.6666ZM4.60787 4.99996V5.74996H11.2745V4.99996V4.24996H4.60787V4.99996ZM4.60787 8.33329V9.08329H11.2745V8.33329V7.58329H4.60787V8.33329ZM2.10787 15V15.75H13.7745V15V14.25H2.10787V15ZM3.95787 1.66663V2.41663H11.9245V1.66663V0.916626H3.95787V1.66663ZM14.6079 4.34996H13.8579V15.65H14.6079H15.3579V4.34996H14.6079ZM11.9245 18.3333V17.5833H3.95787V18.3333V19.0833H11.9245V18.3333ZM1.27454 15.65H2.02454V4.34996H1.27454H0.524536V15.65H1.27454ZM3.95787 18.3333V17.5833C3.47071 17.5833 3.15119 17.5827 2.90699 17.5624C2.67177 17.5429 2.57436 17.509 2.51864 17.4801L2.17291 18.1456L1.82718 18.8112C2.13269 18.9699 2.45319 19.0299 2.78285 19.0573C3.10353 19.0839 3.49588 19.0833 3.95787 19.0833V18.3333ZM1.27454 15.65H0.524536C0.524536 16.1119 0.523933 16.5043 0.550565 16.825C0.577941 17.1546 0.63792 17.4751 0.79662 17.7806L1.46218 17.4349L2.12774 17.0892C2.0988 17.0335 2.06495 16.9361 2.04542 16.7008C2.02514 16.4566 2.02454 16.1371 2.02454 15.65H1.27454ZM2.17291 18.1456L2.51864 17.4801C2.35122 17.3931 2.21471 17.2566 2.12774 17.0892L1.46218 17.4349L0.79662 17.7806C1.0259 18.222 1.38579 18.5819 1.82718 18.8112L2.17291 18.1456ZM14.6079 15.65H13.8579C13.8579 16.1371 13.8573 16.4566 13.837 16.7008C13.8175 16.9361 13.7836 17.0335 13.7547 17.0892L14.4202 17.4349L15.0858 17.7806C15.2445 17.4751 15.3045 17.1546 15.3318 16.825C15.3585 16.5043 15.3579 16.1119 15.3579 15.65H14.6079ZM11.9245 18.3333V19.0833C12.3865 19.0833 12.7789 19.0839 13.0996 19.0573C13.4292 19.0299 13.7497 18.9699 14.0552 18.8112L13.7095 18.1456L13.3638 17.4801C13.308 17.509 13.2106 17.5429 12.9754 17.5624C12.7312 17.5827 12.4117 17.5833 11.9245 17.5833V18.3333ZM14.4202 17.4349L13.7547 17.0892C13.6677 17.2566 13.5312 17.3931 13.3638 17.4801L13.7095 18.1456L14.0552 18.8112C14.4966 18.5819 14.8565 18.222 15.0858 17.7806L14.4202 17.4349ZM11.9245 1.66663V2.41663C12.4117 2.41663 12.7312 2.41723 12.9754 2.43751C13.2106 2.45704 13.308 2.49089 13.3638 2.51983L13.7095 1.85427L14.0552 1.18871C13.7497 1.03001 13.4292 0.970031 13.0996 0.942654C12.7789 0.916023 12.3865 0.916626 11.9245 0.916626V1.66663ZM14.6079 4.34996H15.3579C15.3579 3.88797 15.3585 3.49562 15.3318 3.17494C15.3045 2.84528 15.2445 2.52478 15.0858 2.21927L14.4202 2.565L13.7547 2.91073C13.7836 2.96645 13.8175 3.06386 13.837 3.29908C13.8573 3.54328 13.8579 3.86279 13.8579 4.34996H14.6079ZM13.7095 1.85427L13.3638 2.51983C13.5312 2.6068 13.6677 2.74331 13.7547 2.91073L14.4202 2.565L15.0858 2.21927C14.8565 1.77788 14.4966 1.41799 14.0552 1.18871L13.7095 1.85427ZM3.95787 1.66663V0.916626C3.49588 0.916626 3.10353 0.916023 2.78285 0.942654C2.45319 0.970031 2.13269 1.03001 1.82718 1.18871L2.17291 1.85427L2.51864 2.51983C2.57436 2.49089 2.67177 2.45704 2.90699 2.43751C3.15119 2.41723 3.47071 2.41663 3.95787 2.41663V1.66663ZM1.27454 4.34996H2.02454C2.02454 3.86279 2.02514 3.54328 2.04542 3.29908C2.06495 3.06386 2.0988 2.96645 2.12774 2.91073L1.46218 2.565L0.79662 2.21927C0.63792 2.52478 0.577941 2.84528 0.550565 3.17494C0.523933 3.49562 0.524536 3.88797 0.524536 4.34996H1.27454ZM2.17291 1.85427L1.82718 1.18871C1.38579 1.41799 1.0259 1.77788 0.79662 2.21927L1.46218 2.565L2.12774 2.91073C2.21471 2.74331 2.35122 2.6068 2.51864 2.51983L2.17291 1.85427Z" fill="#757575"/>
</svg>
