<svg width="24" height="25" viewBox="0 0 24 25" fill="none" xmlns="http://www.w3.org/2000/svg">
<path d="M11 1.08331C10.5858 1.08331 10.25 1.4191 10.25 1.83331C10.25 2.24753 10.5858 2.58331 11 2.58331V1.08331ZM13 2.58331C13.4142 2.58331 13.75 2.24753 13.75 1.83331C13.75 1.4191 13.4142 1.08331 13 1.08331V2.58331ZM23.75 11.8333C23.75 11.4191 23.4142 11.0833 23 11.0833C22.5858 11.0833 22.25 11.4191 22.25 11.8333H23.75ZM22.25 13.8333C22.25 14.2475 22.5858 14.5833 23 14.5833C23.4142 14.5833 23.75 14.2475 23.75 13.8333H22.25ZM11 23.0833C10.5858 23.0833 10.25 23.4191 10.25 23.8333C10.25 24.2475 10.5858 24.5833 11 24.5833V23.0833ZM13 24.5833C13.4142 24.5833 13.75 24.2475 13.75 23.8333C13.75 23.4191 13.4142 23.0833 13 23.0833V24.5833ZM1.75 11.8333C1.75 11.4191 1.41421 11.0833 1 11.0833C0.585787 11.0833 0.25 11.4191 0.25 11.8333H1.75ZM0.25 13.8333C0.25 14.2475 0.585786 14.5833 1 14.5833C1.41421 14.5833 1.75 14.2475 1.75 13.8333H0.25ZM3.72993 23.2883L4.07042 22.6201H4.07042L3.72993 23.2883ZM1.54485 21.1033L2.21311 20.7628H2.21311L1.54485 21.1033ZM22.4549 21.1033L21.7867 20.7628V20.7628L22.4549 21.1033ZM20.2698 23.2883L19.9293 22.6201H19.9293L20.2698 23.2883ZM20.2698 2.37828L19.9293 3.04654V3.04654L20.2698 2.37828ZM22.4549 4.56336L21.7867 4.90385V4.90385L22.4549 4.56336ZM3.72993 2.37828L4.07043 3.04654L3.72993 2.37828ZM1.54485 4.56336L2.21311 4.90385V4.90385L1.54485 4.56336ZM7.01435 2.59422C7.42849 2.58629 7.75779 2.24414 7.74986 1.83C7.74194 1.41587 7.39978 1.08657 6.98565 1.0945L7.01435 2.59422ZM0.261069 7.81897C0.253141 8.23311 0.582438 8.57526 0.996576 8.58319C1.41071 8.59112 1.75287 8.26182 1.76079 7.84768L0.261069 7.81897ZM1.76079 17.8189C1.75287 17.4048 1.41071 17.0755 0.996576 17.0834C0.582438 17.0914 0.253141 17.4335 0.261069 17.8477L1.76079 17.8189ZM6.98565 24.5721C7.39978 24.5801 7.74194 24.2508 7.74986 23.8366C7.75779 23.4225 7.42849 23.0803 7.01436 23.0724L6.98565 24.5721ZM16.9854 23.0724C16.5713 23.0803 16.242 23.4225 16.2499 23.8366C16.2578 24.2508 16.6 24.5801 17.0141 24.5721L16.9854 23.0724ZM23.7387 17.8477C23.7466 17.4335 23.4173 17.0914 23.0032 17.0834C22.5891 17.0755 22.2469 17.4048 22.239 17.8189L23.7387 17.8477ZM22.239 7.84768C22.2469 8.26182 22.5891 8.59112 23.0032 8.58319C23.4173 8.57526 23.7466 8.23311 23.7387 7.81897L22.239 7.84768ZM17.0141 1.0945C16.6 1.08657 16.2578 1.41587 16.2499 1.83C16.242 2.24414 16.5713 2.58629 16.9854 2.59422L17.0141 1.0945ZM11.3816 8.19555L10.8513 7.66522L11.3816 8.19555ZM7.36223 12.2149L7.89256 12.7453V12.7453L7.36223 12.2149ZM7.36223 13.964L7.89256 13.4336V13.4336L7.36223 13.964ZM10.8694 17.4711L10.339 18.0014L10.8694 17.4711ZM12.6184 17.4711L13.1487 18.0014L12.6184 17.4711ZM16.6378 13.4517L17.1681 13.982L16.6378 13.4517ZM11 1.83331V2.58331H13V1.83331V1.08331H11V1.83331ZM23 11.8333H22.25V13.8333H23H23.75V11.8333H23ZM11 23.8333V24.5833H13V23.8333V23.0833H11V23.8333ZM1 11.8333H0.25L0.25 13.8333H1H1.75L1.75 11.8333H1ZM3.72993 23.2883L4.07042 22.6201C3.27074 22.2126 2.62057 21.5625 2.21311 20.7628L1.54485 21.1033L0.876597 21.4438C1.42787 22.5257 2.30751 23.4053 3.38944 23.9566L3.72993 23.2883ZM22.4549 21.1033L21.7867 20.7628C21.3792 21.5625 20.729 22.2126 19.9293 22.6201L20.2698 23.2883L20.6103 23.9566C21.6923 23.4053 22.5719 22.5257 23.1232 21.4438L22.4549 21.1033ZM20.2698 2.37828L19.9293 3.04654C20.729 3.454 21.3792 4.10416 21.7867 4.90385L22.4549 4.56336L23.1232 4.22287C22.5719 3.14094 21.6923 2.2613 20.6103 1.71003L20.2698 2.37828ZM3.72993 2.37828L3.38944 1.71003C2.30751 2.2613 1.42787 3.14094 0.876597 4.22287L1.54485 4.56336L2.21311 4.90385C2.62057 4.10416 3.27074 3.454 4.07043 3.04654L3.72993 2.37828ZM7 1.84436L6.98565 1.0945C5.44932 1.12391 4.33696 1.22724 3.38944 1.71003L3.72993 2.37828L4.07043 3.04654C4.6788 2.73655 5.47211 2.62374 7.01435 2.59422L7 1.84436ZM1.01093 7.83333L1.76079 7.84768C1.79032 6.3055 1.90313 5.51221 2.21311 4.90385L1.54485 4.56336L0.876597 4.22287C0.393823 5.17037 0.290481 6.2827 0.261069 7.81897L1.01093 7.83333ZM1.01093 17.8333L0.261069 17.8477C0.290481 19.3839 0.393823 20.4963 0.876597 21.4438L1.54485 21.1033L2.21311 20.7628C1.90313 20.1544 1.79032 19.3611 1.76079 17.8189L1.01093 17.8333ZM7 23.8223L7.01436 23.0724C5.47211 23.0429 4.6788 22.9301 4.07042 22.6201L3.72993 23.2883L3.38944 23.9566C4.33696 24.4394 5.44932 24.5427 6.98565 24.5721L7 23.8223ZM16.9998 23.8223L17.0141 24.5721C18.5505 24.5427 19.6628 24.4394 20.6103 23.9566L20.2698 23.2883L19.9293 22.6201C19.321 22.9301 18.5277 23.0429 16.9854 23.0724L16.9998 23.8223ZM22.9888 17.8333L22.239 17.8189C22.2094 19.3611 22.0966 20.1544 21.7867 20.7628L22.4549 21.1033L23.1232 21.4438C23.6059 20.4963 23.7093 19.3839 23.7387 17.8477L22.9888 17.8333ZM22.9888 7.83333L23.7387 7.81897C23.7093 6.2827 23.6059 5.17037 23.1232 4.22287L22.4549 4.56336L21.7867 4.90385C22.0966 5.51221 22.2094 6.3055 22.239 7.84768L22.9888 7.83333ZM16.9998 1.84436L16.9854 2.59422C18.5277 2.62374 19.321 2.73655 19.9293 3.04654L20.2698 2.37828L20.6103 1.71003C19.6628 1.22724 18.5505 1.12391 17.0141 1.0945L16.9998 1.84436ZM15.7633 7.83331V7.08331H12.2561V7.83331V8.58331H15.7633V7.83331ZM11.3816 8.19555L10.8513 7.66522L6.8319 11.6846L7.36223 12.2149L7.89256 12.7453L11.912 8.72588L11.3816 8.19555ZM7.36223 13.964L6.8319 14.4943L10.339 18.0014L10.8694 17.4711L11.3997 16.9408L7.89256 13.4336L7.36223 13.964ZM12.6184 17.4711L13.1487 18.0014L17.1681 13.982L16.6378 13.4517L16.1074 12.9214L12.088 16.9408L12.6184 17.4711ZM17 12.5772H17.75V9.07005H17H16.25V12.5772H17ZM16.6378 13.4517L17.1681 13.982C17.5407 13.6094 17.75 13.1041 17.75 12.5772H17H16.25C16.25 12.7063 16.1987 12.8301 16.1074 12.9214L16.6378 13.4517ZM10.8694 17.4711L10.339 18.0014C11.1149 18.7773 12.3728 18.7773 13.1487 18.0014L12.6184 17.4711L12.088 16.9408C11.898 17.1308 11.5898 17.1308 11.3997 16.9408L10.8694 17.4711ZM7.36223 12.2149L6.8319 11.6846C6.05603 12.4605 6.05603 13.7184 6.8319 14.4943L7.36223 13.964L7.89256 13.4336C7.70248 13.2435 7.70248 12.9354 7.89256 12.7453L7.36223 12.2149ZM12.2561 7.83331V7.08331C11.7292 7.08331 11.2239 7.29263 10.8513 7.66522L11.3816 8.19555L11.912 8.72588C12.0032 8.63459 12.127 8.58331 12.2561 8.58331V7.83331ZM15.7633 7.83331V8.58331C16.0321 8.58331 16.25 8.80123 16.25 9.07005H17H17.75C17.75 7.97281 16.8605 7.08331 15.7633 7.08331V7.83331Z" fill="#757575"/>
</svg>
