<svg width="21" height="20" viewBox="0 0 21 20" fill="none" xmlns="http://www.w3.org/2000/svg">
<path d="M8.05882 8.33337L12.2255 12.5M19.7255 10C19.7255 15.0626 15.6214 19.1667 10.5588 19.1667C5.49621 19.1667 1.39215 15.0626 1.39215 10C1.39215 4.93743 5.49621 0.833374 10.5588 0.833374C15.6214 0.833374 19.7255 4.93743 19.7255 10ZM8.25546 8.25963L13.8672 6.15524C14.2021 6.02963 14.5292 6.35672 14.4036 6.69168L12.2992 12.3034C12.2528 12.4271 12.1506 12.5214 12.0236 12.5577L7.11329 13.9607C6.79898 14.0505 6.50839 13.7599 6.59819 13.4456L8.00112 8.5353C8.03741 8.40829 8.13177 8.30601 8.25546 8.25963Z" stroke="#757575" stroke-width="1.5"/>
</svg>
