<svg width="17" height="17" viewBox="0 0 17 17" fill="none" xmlns="http://www.w3.org/2000/svg">
<path d="M5.85602 3.62128L5.31936 3.35295L5.31936 3.35296L5.85602 3.62128ZM5.91036 3.51259L5.37371 3.24426V3.24426L5.91036 3.51259ZM11.0896 3.51259L10.553 3.78092L10.553 3.78092L11.0896 3.51259ZM11.144 3.62128L11.6806 3.35296L11.6806 3.35295L11.144 3.62128ZM11.1994 3.6661L11.1229 4.2612L11.1229 4.26121L11.1994 3.6661ZM11.1525 3.63715L10.6545 3.97171L10.6545 3.97173L11.1525 3.63715ZM10.1107 2.40619L10.3064 1.83898L10.3064 1.83898L10.1107 2.40619ZM10.6089 2.71409L11.0287 2.28544V2.28544L10.6089 2.71409ZM6.39109 2.71409L5.97126 2.28544L5.97126 2.28544L6.39109 2.71409ZM6.88928 2.40619L7.08493 2.97339L6.88928 2.40619ZM5.80063 3.6661L5.72412 3.071L5.72412 3.071L5.80063 3.6661ZM5.84747 3.63715L5.34942 3.30257L5.34941 3.30258L5.84747 3.63715ZM3.95603 14.0427L4.22842 13.5081L3.95603 14.0427ZM2.79065 12.8773L3.32525 12.6049H3.32525L2.79065 12.8773ZM14.2094 12.8773L13.6747 12.6049H13.6747L14.2094 12.8773ZM13.044 14.0427L12.7716 13.5081V13.5081L13.044 14.0427ZM14.4562 5.8522L15.0464 5.74395L15.0464 5.74395L14.4562 5.8522ZM12.3144 3.71041L12.2062 4.30056L12.3144 3.71041ZM2.54376 5.8522L3.13391 5.96045L2.54376 5.8522ZM4.68555 3.71041L4.5773 3.12025L4.68555 3.71041ZM14.5 6.94926H13.9V10.0666H14.5H15.1V6.94926H14.5ZM10.2333 14.3333V13.7333H6.76667V14.3333V14.9333H10.2333V14.3333ZM2.5 10.0666H3.1V6.94926H2.5H1.9V10.0666H2.5ZM5.85602 3.62128L6.39267 3.88961L6.44702 3.78092L5.91036 3.51259L5.37371 3.24426L5.31936 3.35295L5.85602 3.62128ZM7.81847 2.33331V2.93331H9.18153V2.33331V1.73331H7.81847V2.33331ZM11.0896 3.51259L10.553 3.78092L10.6073 3.88961L11.144 3.62128L11.6806 3.35295L11.6263 3.24426L11.0896 3.51259ZM11.2174 3.66665V3.06665C11.2162 3.06665 11.2154 3.06665 11.2148 3.06665C11.2142 3.06664 11.214 3.06664 11.2141 3.06664C11.2143 3.06665 11.215 3.06665 11.216 3.06666C11.2171 3.06667 11.2188 3.0667 11.221 3.06675C11.2295 3.06696 11.2498 3.06765 11.2759 3.071L11.1994 3.6661L11.1229 4.26121C11.1532 4.2651 11.1779 4.26606 11.1921 4.2664C11.2038 4.26669 11.2156 4.26665 11.2174 4.26665V3.66665ZM11.144 3.62128L10.6073 3.8896C10.6081 3.89123 10.6134 3.90179 10.6189 3.91213C10.6255 3.92468 10.6374 3.94636 10.6545 3.97171L11.1525 3.63715L11.6506 3.3026C11.6652 3.3244 11.6749 3.34226 11.679 3.34982C11.68 3.35175 11.6808 3.35326 11.6812 3.3542C11.6817 3.35514 11.682 3.35575 11.6821 3.35586C11.6822 3.35597 11.6821 3.35584 11.6818 3.35529C11.6815 3.35472 11.6812 3.35405 11.6806 3.35296L11.144 3.62128ZM11.1994 3.6661L11.2759 3.071C11.4283 3.0906 11.5649 3.17501 11.6506 3.30258L11.1525 3.63715L10.6545 3.97173C10.7616 4.1312 10.9323 4.23671 11.1229 4.2612L11.1994 3.6661ZM9.18153 2.33331V2.93331C9.70363 2.93331 9.82157 2.94114 9.91507 2.97339L10.1107 2.40619L10.3064 1.83898C9.97732 1.72548 9.61664 1.73331 9.18153 1.73331V2.33331ZM11.0896 3.51259L11.6263 3.24426C11.4317 2.85509 11.2774 2.52899 11.0287 2.28544L10.6089 2.71409L10.1891 3.14274C10.2597 3.21195 10.3195 3.31393 10.553 3.78092L11.0896 3.51259ZM10.1107 2.40619L9.91507 2.97339C10.0178 3.00884 10.1114 3.06668 10.1891 3.14274L10.6089 2.71409L11.0287 2.28544C10.824 2.08492 10.5773 1.93242 10.3064 1.83898L10.1107 2.40619ZM5.91036 3.51259L6.44702 3.78092C6.68051 3.31393 6.74026 3.21195 6.81092 3.14274L6.39109 2.71409L5.97126 2.28544C5.72259 2.52899 5.56829 2.85509 5.37371 3.24426L5.91036 3.51259ZM7.81847 2.33331V1.73331C7.38336 1.73331 7.02268 1.72548 6.69364 1.83898L6.88928 2.40619L7.08493 2.97339C7.17843 2.94114 7.29637 2.93331 7.81847 2.93331V2.33331ZM6.39109 2.71409L6.81092 3.14274C6.88857 3.06668 6.98217 3.00884 7.08493 2.97339L6.88928 2.40619L6.69364 1.83898C6.42273 1.93242 6.17599 2.08492 5.97126 2.28544L6.39109 2.71409ZM5.78261 3.66665V4.26665C5.78444 4.26665 5.79622 4.26669 5.80792 4.2664C5.82212 4.26606 5.84685 4.2651 5.87714 4.2612L5.80063 3.6661L5.72412 3.071C5.75018 3.06765 5.77049 3.06696 5.77905 3.06675C5.78123 3.0667 5.78294 3.06667 5.78399 3.06666C5.78505 3.06665 5.78573 3.06665 5.78586 3.06664C5.78598 3.06664 5.78584 3.06664 5.78522 3.06665C5.78458 3.06665 5.78383 3.06665 5.78261 3.06665V3.66665ZM5.85602 3.62128L5.31936 3.35296C5.31881 3.35405 5.31847 3.35472 5.31819 3.3553C5.31791 3.35585 5.31785 3.35597 5.3179 3.35586C5.31796 3.35575 5.31827 3.35514 5.31875 3.3542C5.31924 3.35326 5.32003 3.35174 5.32105 3.34981C5.32506 3.34225 5.33477 3.32438 5.34942 3.30257L5.84747 3.63715L6.34552 3.97174C6.36256 3.94638 6.37448 3.92469 6.38114 3.91213C6.38663 3.90179 6.39186 3.89123 6.39268 3.8896L5.85602 3.62128ZM5.80063 3.6661L5.87714 4.2612C6.06769 4.23671 6.2384 4.1312 6.34553 3.97172L5.84747 3.63715L5.34941 3.30258C5.43511 3.17501 5.57168 3.0906 5.72412 3.071L5.80063 3.6661ZM6.76667 14.3333V13.7333C6.01003 13.7333 5.47864 13.7328 5.06406 13.699C4.6565 13.6657 4.41495 13.6031 4.22842 13.5081L3.95603 14.0427L3.68363 14.5773C4.06753 14.7729 4.48457 14.8556 4.96635 14.895C5.44112 14.9338 6.02983 14.9333 6.76667 14.9333V14.3333ZM2.5 10.0666H1.9C1.9 10.8035 1.89953 11.3922 1.93832 11.867C1.97769 12.3487 2.06044 12.7658 2.25605 13.1497L2.79065 12.8773L3.32525 12.6049C3.23021 12.4184 3.16764 12.1768 3.13434 11.7692C3.10047 11.3547 3.1 10.8233 3.1 10.0666H2.5ZM3.95603 14.0427L4.22842 13.5081C3.83955 13.3099 3.52339 12.9938 3.32525 12.6049L2.79065 12.8773L2.25605 13.1497C2.56923 13.7643 3.06897 14.2641 3.68363 14.5773L3.95603 14.0427ZM14.5 10.0666H13.9C13.9 10.8233 13.8995 11.3547 13.8657 11.7692C13.8324 12.1768 13.7698 12.4184 13.6747 12.6049L14.2094 12.8773L14.744 13.1497C14.9396 12.7658 15.0223 12.3487 15.0617 11.867C15.1005 11.3922 15.1 10.8035 15.1 10.0666H14.5ZM10.2333 14.3333V14.9333C10.9702 14.9333 11.5589 14.9338 12.0337 14.895C12.5154 14.8556 12.9325 14.7729 13.3164 14.5773L13.044 14.0427L12.7716 13.5081C12.585 13.6031 12.3435 13.6657 11.9359 13.699C11.5214 13.7328 10.99 13.7333 10.2333 13.7333V14.3333ZM14.2094 12.8773L13.6747 12.6049C13.4766 12.9938 13.1604 13.3099 12.7716 13.5081L13.044 14.0427L13.3164 14.5773C13.931 14.2641 14.4308 13.7643 14.744 13.1497L14.2094 12.8773ZM14.5 6.94926H15.1C15.1 6.40346 15.1025 6.04972 15.0464 5.74395L14.4562 5.8522L13.8661 5.96045C13.8975 6.13181 13.9 6.3504 13.9 6.94926H14.5ZM11.2174 3.66665V4.26665C11.8162 4.26665 12.0348 4.26913 12.2062 4.30056L12.3144 3.71041L12.4227 3.12025C12.1169 3.06416 11.7632 3.06665 11.2174 3.06665V3.66665ZM14.4562 5.8522L15.0464 5.74395C14.8016 4.40936 13.7573 3.36505 12.4227 3.12025L12.3144 3.71041L12.2062 4.30056C13.0505 4.45543 13.7112 5.11612 13.8661 5.96045L14.4562 5.8522ZM2.5 6.94926H3.1C3.1 6.3504 3.10248 6.13181 3.13391 5.96045L2.54376 5.8522L1.95361 5.74395C1.89752 6.04972 1.9 6.40346 1.9 6.94926H2.5ZM5.78261 3.66665V3.06665C5.23682 3.06665 4.88308 3.06416 4.5773 3.12025L4.68555 3.71041L4.7938 4.30056C4.96516 4.26913 5.18375 4.26665 5.78261 4.26665V3.66665ZM2.54376 5.8522L3.13391 5.96045C3.28879 5.11612 3.94947 4.45543 4.7938 4.30056L4.68555 3.71041L4.5773 3.12025C3.24272 3.36505 2.19841 4.40936 1.95361 5.74395L2.54376 5.8522ZM11.1667 8.99998H10.5667C10.5667 10.1414 9.64139 11.0666 8.5 11.0666V11.6666V12.2666C10.3041 12.2666 11.7667 10.8041 11.7667 8.99998H11.1667ZM8.5 11.6666V11.0666C7.35861 11.0666 6.43333 10.1414 6.43333 8.99998H5.83333H5.23333C5.23333 10.8041 6.69587 12.2666 8.5 12.2666V11.6666ZM5.83333 8.99998H6.43333C6.43333 7.85859 7.35861 6.93331 8.5 6.93331V6.33331V5.73331C6.69587 5.73331 5.23333 7.19585 5.23333 8.99998H5.83333ZM8.5 6.33331V6.93331C9.64139 6.93331 10.5667 7.85859 10.5667 8.99998H11.1667H11.7667C11.7667 7.19585 10.3041 5.73331 8.5 5.73331V6.33331Z" fill="#F3F3F3"/>
</svg>
