<svg width="17" height="16" viewBox="0 0 17 16" fill="none" xmlns="http://www.w3.org/2000/svg">
<path d="M15.3417 4.16695L12.0084 1.38917C11.3903 0.874103 10.4925 0.874102 9.87443 1.38917L7.00838 3.77754C6.3903 4.29261 5.49251 4.29261 4.87443 3.77754L2.30823 1.63904C1.76545 1.18673 0.941406 1.57269 0.941406 2.27922V10.5527C0.941406 11.0474 1.16111 11.5164 1.5411 11.8331L4.87443 14.6109C5.18347 14.8684 5.56244 14.9972 5.94141 14.9972M5.94141 4.66669V14.6667M15.9414 9.66669C15.9414 11.5076 13.4414 14.6667 12.6081 14.6667C11.7747 14.6667 9.27474 11.5076 9.27474 9.66669C9.27474 7.82574 10.7671 6.33336 12.6081 6.33336C14.449 6.33336 15.9414 7.82574 15.9414 9.66669Z" stroke="#757575" stroke-width="1.25" stroke-linecap="round"/>
</svg>
