<svg width="20" height="20" viewBox="0 0 20 20" fill="none" xmlns="http://www.w3.org/2000/svg">
<path d="M1.00559 5.83331C1 6.24592 1 6.70893 1 7.23331V12.4333C1 14.6735 1 15.7936 1.43597 16.6493C1.81947 17.4019 2.43139 18.0138 3.18404 18.3973C4.03968 18.8333 5.15979 18.8333 7.4 18.8333H12.6C13.1244 18.8333 13.5874 18.8333 14 18.8277M1.00559 5.83331C1.02389 4.48321 1.10205 3.67271 1.43597 3.01735C1.81947 2.2647 2.43139 1.65278 3.18404 1.26929C4.03968 0.833313 5.15979 0.833313 7.4 0.833313H12.6C14.8402 0.833313 15.9603 0.833313 16.816 1.26929C17.5686 1.65278 18.1805 2.2647 18.564 3.01735C19 3.873 19 4.9931 19 7.23331V12.4333C19 13.9471 19 14.9495 18.8655 15.7044M1.00559 5.83331L6.00559 10.8333M14 18.8277C15.3501 18.8094 16.1606 18.7313 16.816 18.3973C17.5686 18.0138 18.1805 17.4019 18.564 16.6493C18.7054 16.3718 18.8009 16.0666 18.8655 15.7044M14 18.8277L6.00559 10.8333M6.00559 10.8333L7.73726 9.10165C8.52929 8.30961 8.92531 7.9136 9.38197 7.76522C9.78365 7.6347 10.2163 7.6347 10.618 7.76522C11.0747 7.9136 11.4707 8.30961 12.2627 9.10165L18.8655 15.7044M15.01 4.83331H14.99" stroke="#757575" stroke-width="1.5" stroke-linecap="round"/>
</svg>
