<svg width="134" height="53" viewBox="0 0 134 53" fill="none" xmlns="http://www.w3.org/2000/svg">
<path d="M58.1228 41.7282C58.9923 42.489 59.6987 44.0649 59.6987 45.6407C59.6987 49.8792 56.0579 52.3245 52.0367 52.3245C35.7347 52.3245 41.9295 27.5455 31.7679 25.6979L30.4638 30.5885C27.5837 41.2392 20.8999 46.5645 12.9663 46.5645C5.84774 46.5645 -1.32514 40.3697 0.739781 32.7078C2.31564 26.7847 7.47794 24.8285 11.7708 24.8285C15.3029 24.8285 18.1829 26.6217 19.3784 29.1214C19.5414 29.5017 19.3784 29.9365 18.9437 30.1538C18.6176 30.2625 18.2373 30.1538 18.0199 29.8278C17.2048 28.741 15.955 27.9802 14.3791 27.9802C12.2599 27.9802 9.97758 29.6104 9.3255 32.1101C8.56474 34.9901 10.4123 38.5222 14.2704 38.5222C18.0742 38.5222 20.5739 35.3161 21.878 30.5885C22.4758 28.3606 24.1603 22.3832 24.8124 19.8292C26.8773 12.1129 31.3875 5.8095 38.8865 2.76646C37.6366 2.49476 36.2238 2.2774 34.6479 2.2774C26.1166 2.2774 20.7369 7.27668 19.5958 11.5695C18.8893 14.1235 19.9218 16.2971 21.4433 16.9492C21.9324 17.1666 22.0954 17.4383 21.9867 17.873C21.8237 18.362 21.226 18.6337 20.6826 18.6337C13.7814 18.6337 10.5753 14.5582 11.9338 9.55896C13.5097 3.79892 22.2584 -0.00488281 32.42 -0.00488281C47.5265 -0.00488281 56.7643 9.01556 54.8081 16.4601C53.3952 21.6224 47.9612 24.1764 39.6472 25.1545C49.6458 30.2625 48.559 44.2822 54.2103 44.2822C55.4058 44.2822 56.1666 43.7388 57.1447 42.0543C57.4164 41.5652 57.8511 41.5109 58.1228 41.7282ZM32.42 23.2526C39.9189 22.9809 44.7008 20.2096 46.005 15.0473C47.1461 10.6458 45.7333 5.48346 40.5167 3.30986C36.4412 8.2548 33.9415 17.4926 32.42 23.2526Z" fill="white"/>
<path d="M77.8563 27.6542C78.6171 27.6542 79.2148 28.3606 78.9974 29.067C77.6933 33.9576 74.4329 39.609 68.9989 39.609C66.4449 39.609 64.5974 38.1418 64.0539 35.5878C62.2064 38.1961 59.9784 39.609 57.1528 39.609C53.838 39.609 50.8493 36.7833 51.7188 33.4142L55.4139 19.6119C56.1203 17.0035 59.109 15.645 62.2607 15.645C64.3256 15.645 65.0321 16.9492 64.543 18.7424C63.8909 21.2421 61.826 23.5787 60.7392 27.6542C60.5218 28.4149 59.7067 31.7297 59.5981 31.947C59.0003 34.2837 58.8373 35.8595 60.1958 35.8595C62.7498 35.8595 65.6298 25.9153 67.423 19.6119C68.1294 17.0035 70.303 15.645 73.4548 15.645C75.4653 15.645 76.2261 16.9492 75.737 18.7424C75.3567 20.1009 73.9982 22.9266 73.4004 25.3176C72.2049 29.7734 72.368 32.4361 73.9982 32.4361C75.1393 32.4361 76.2804 30.3168 76.7695 28.4693C76.9325 27.9802 77.3672 27.6542 77.8563 27.6542Z" fill="white"/>
<path d="M114.673 27.6542C115.434 27.6542 115.977 28.3606 115.814 29.067C114.51 33.9576 111.25 39.609 105.816 39.609C102.066 39.609 99.7294 36.4029 101.142 31.295C101.36 30.5885 103.044 24.0677 103.262 23.307C103.859 20.9704 104.022 19.3945 102.664 19.3945C100.11 19.3945 98.1536 30.2082 96.3604 36.5116C95.8713 38.3048 94.4585 39.609 92.4479 39.609C89.2962 39.609 87.0139 38.2505 87.7203 35.6422C87.8833 35.1531 90.9263 23.5243 90.9807 23.307C91.5784 20.9704 91.8501 19.3945 90.9263 19.3945C88.4267 19.3945 85.275 30.2082 83.5361 36.5116C83.0471 38.3048 81.6342 39.609 79.6236 39.609C76.4719 39.609 74.1896 38.2505 74.896 35.6422L79.1889 19.6119C79.8953 17.0035 82.884 15.645 86.0358 15.645C87.8833 15.645 88.6441 16.7318 88.3724 18.3077C90.0026 16.5688 91.8501 15.645 94.0237 15.645C96.7407 15.645 98.8056 17.873 98.9687 20.3183C100.708 17.3296 102.772 15.645 105.707 15.645C109.348 15.645 111.902 18.9054 111.141 21.8398C110.815 23.0896 110.489 24.1764 110.217 25.3176C109.022 29.7734 109.185 32.4361 110.815 32.4361C111.956 32.4361 113.097 30.3168 113.586 28.4693C113.695 27.9802 114.184 27.6542 114.673 27.6542Z" fill="white"/>
<path d="M126.263 15.645C132.784 15.645 135.229 21.0247 133.436 27.6542C131.697 34.2293 126.317 39.609 119.797 39.609C113.276 39.609 110.83 34.2293 112.624 27.6542C114.363 21.0247 119.742 15.645 126.263 15.645ZM121.753 32.4361C124.144 32.4361 125.611 29.1757 126.643 25.2089C127.73 21.1877 128.056 17.9273 125.611 17.9273C123.22 17.9273 121.807 21.1877 120.72 25.2089C119.634 29.1757 119.308 32.4361 121.753 32.4361Z" fill="white"/>
</svg>
